<svg width="337" height="357" viewBox="0 0 337 357" fill="none" xmlns="http://www.w3.org/2000/svg">
<path fill-rule="evenodd" clip-rule="evenodd" d="M83.1489 129.225C76.6971 117.186 73.0642 103.586 73.0642 89.1897C73.0642 39.9316 115.593 0 168.055 0V80.3003C175.222 68.6329 185.17 58.6232 197.645 51.3668C240.225 26.6008 296.125 43.2864 322.502 88.6352L252.701 129.234C266.427 129.59 280.112 133.201 292.669 140.397C335.407 164.889 348.907 221.642 322.822 267.16L252.961 227.124C259.413 239.163 263.046 252.763 263.046 267.16C263.046 316.418 220.517 356.35 168.055 356.35V276.049C160.888 287.717 150.94 297.726 138.465 304.983C95.8851 329.749 39.985 313.063 13.6082 267.714L83.409 227.115C69.6824 226.759 55.9981 223.149 43.4408 215.953C0.703038 191.461 -12.7968 134.707 13.2879 89.1898L83.1489 129.225ZM168.105 177.97C168.088 177.941 168.072 177.912 168.055 177.883L168.055 177.97C168.072 177.97 168.088 177.97 168.105 177.97ZM168.055 178.379V178.466L168.005 178.379L168.055 178.379Z" fill="#F4ADB3"/>
</svg>
